<svg width="24" height="24" viewBox="0 0 24 24" fill="none" xmlns="http://www.w3.org/2000/svg">
<path d="M15.7283 3.8836C17.1626 2.44371 19.2607 2.41347 20.4221 3.57944C21.5858 4.74762 21.5545 6.85885 20.1192 8.29972L17.6953 10.733C17.403 11.0264 17.4039 11.5013 17.6974 11.7936C17.9909 12.086 18.4657 12.085 18.758 11.7916L21.1819 9.35833C23.0932 7.43961 23.3331 4.37629 21.4849 2.52084C19.6344 0.663185 16.5779 0.905298 14.6656 2.825L9.81793 7.69145C7.90663 9.61017 7.66668 12.6735 9.51494 14.529C9.80727 14.8224 10.2821 14.8234 10.5756 14.531C10.8691 14.2387 10.87 13.7638 10.5777 13.4704C9.414 12.3022 9.44534 10.1909 10.8806 8.75006L15.7283 3.8836Z" fill="#17181A"/>
<path d="M14.4849 9.47037C14.1925 9.17691 13.7177 9.17599 13.4242 9.46832C13.1307 9.76064 13.1298 10.2355 13.4221 10.529C14.5858 11.6972 14.5545 13.8084 13.1192 15.2492L8.27153 20.1157C6.83721 21.5556 4.73913 21.5859 3.57766 20.4199C2.414 19.2517 2.44534 17.1404 3.88065 15.6996L6.30449 13.2663C6.59681 12.9729 6.59589 12.498 6.30243 12.2057C6.00897 11.9133 5.5341 11.9143 5.24177 12.2077L2.81793 14.641C0.906631 16.5597 0.666672 19.6231 2.51495 21.4785C4.36542 23.3362 7.42197 23.0941 9.33425 21.1744L14.1819 16.3078C16.0932 14.3891 16.3331 11.3258 14.4849 9.47037Z" fill="#17181A"/>
</svg>
