<svg width="20" height="20" viewBox="0 0 20 20" fill="none" xmlns="http://www.w3.org/2000/svg">
<path d="M20 6.5C20 2.91015 17.0899 0 13.5 0C11.4171 0 9.56308 0.9823 8.37351 2.50721C13.4471 2.70336 17.5 6.87838 17.5 12C17.5 12.1103 17.4981 12.2202 17.4944 12.3296L17.8267 12.4185C18.793 12.677 19.677 11.793 19.4185 10.8267L19.2911 10.3506C19.1882 9.96607 19.2501 9.55981 19.4155 9.19772C19.7908 8.37599 20 7.46242 20 6.5Z" fill="white"/>
<path fill-rule="evenodd" clip-rule="evenodd" d="M16 12C16 16.4183 12.4183 20 8 20C6.76449 20 5.5944 19.7199 4.54976 19.2198C4.19071 19.0479 3.78393 18.9876 3.39939 19.0904L2.17335 19.4185C1.20701 19.677 0.322954 18.793 0.581511 17.8267L0.909555 16.6006C1.01245 16.2161 0.952094 15.8093 0.7802 15.4502C0.280075 14.4056 0 13.2355 0 12C0 7.58172 3.58172 4 8 4C12.4183 4 16 7.58172 16 12ZM4.5 13C5.05228 13 5.5 12.5523 5.5 12C5.5 11.4477 5.05228 11 4.5 11C3.94772 11 3.5 11.4477 3.5 12C3.5 12.5523 3.94772 13 4.5 13ZM8 13C8.55228 13 9 12.5523 9 12C9 11.4477 8.55228 11 8 11C7.44772 11 7 11.4477 7 12C7 12.5523 7.44772 13 8 13ZM11.5 13C12.0523 13 12.5 12.5523 12.5 12C12.5 11.4477 12.0523 11 11.5 11C10.9477 11 10.5 11.4477 10.5 12C10.5 12.5523 10.9477 13 11.5 13Z" fill="white"/>
</svg>
