<svg width="20" height="21" viewBox="0 0 20 21" fill="none" xmlns="http://www.w3.org/2000/svg">
<path fill-rule="evenodd" clip-rule="evenodd" d="M20 10.9395C20 16.4623 15.5228 20.9395 10 20.9395C4.47715 20.9395 0 16.4623 0 10.9395C0 5.41661 4.47715 0.939453 10 0.939453C15.5228 0.939453 20 5.41661 20 10.9395ZM14.0303 7.90912C14.3232 8.20202 14.3232 8.67689 14.0303 8.96978L9.03033 13.9698C8.73744 14.2627 8.26256 14.2627 7.96967 13.9698L5.96967 11.9698C5.67678 11.6769 5.67678 11.202 5.96967 10.9091C6.26256 10.6162 6.73744 10.6162 7.03033 10.9091L8.5 12.3788L10.7348 10.144L12.9697 7.90912C13.2626 7.61623 13.7374 7.61623 14.0303 7.90912Z" fill="white"/>
</svg>
