<svg width="18" height="18" viewBox="0 0 18 18" fill="none" xmlns="http://www.w3.org/2000/svg">
<path fill-rule="evenodd" clip-rule="evenodd" d="M9.00008 1.29163C4.74289 1.29163 1.29175 4.74276 1.29175 8.99996C1.29175 13.2572 4.74289 16.7083 9.00008 16.7083C13.2573 16.7083 16.7084 13.2572 16.7084 8.99996C16.7084 4.74276 13.2573 1.29163 9.00008 1.29163ZM0.041748 8.99996C0.041748 4.05241 4.05253 0.041626 9.00008 0.041626C13.9476 0.041626 17.9584 4.05241 17.9584 8.99996C17.9584 13.9475 13.9476 17.9583 9.00008 17.9583C4.05253 17.9583 0.041748 13.9475 0.041748 8.99996ZM9.00008 5.04163C9.34526 5.04163 9.62508 5.32145 9.62508 5.66663V8.74108L11.5254 10.6414C11.7694 10.8854 11.7694 11.2812 11.5254 11.5252C11.2813 11.7693 10.8856 11.7693 10.6415 11.5252L8.55814 9.4419C8.44093 9.32469 8.37508 9.16572 8.37508 8.99996V5.66663C8.37508 5.32145 8.6549 5.04163 9.00008 5.04163Z" fill="#5271FF"/>
</svg>
