<svg width="17" height="16" viewBox="0 0 17 16" fill="none" xmlns="http://www.w3.org/2000/svg">
<g clip-path="url(#clip0_0_1901)">
<path d="M8.5 0C12.9184 0 16.5 3.5816 16.5 8C16.5 12.4184 12.9184 16 8.5 16C4.0816 16 0.5 12.4184 0.5 8C0.5 3.5816 4.0816 0 8.5 0ZM8.5 1.116C6.67425 1.116 4.92328 1.84128 3.63228 3.13228C2.34128 4.42328 1.616 6.17425 1.616 8C1.616 9.82575 2.34128 11.5767 3.63228 12.8677C4.92328 14.1587 6.67425 14.884 8.5 14.884C10.3258 14.884 12.0767 14.1587 13.3677 12.8677C14.6587 11.5767 15.384 9.82575 15.384 8C15.384 6.17425 14.6587 4.42328 13.3677 3.13228C12.0767 1.84128 10.3258 1.116 8.5 1.116ZM10.1384 2.7904C10.6585 2.98706 11.1449 3.26343 11.58 3.6096C11.68 3.6864 11.776 3.768 11.8704 3.8552C11.888 3.8704 11.9032 3.8864 11.92 3.9032C12.1824 4.1456 12.4208 4.4184 12.632 4.7112C12.6616 4.752 12.6928 4.7896 12.72 4.8288C12.7712 4.904 12.8192 4.9824 12.8672 5.0608C12.9498 5.19303 13.0258 5.32919 13.0952 5.4688C13.1376 5.5488 13.1752 5.636 13.2144 5.7208C13.2408 5.7792 13.2704 5.8392 13.2944 5.9016C13.3528 6.0472 13.4048 6.1936 13.452 6.3432C13.4672 6.3928 13.4792 6.4456 13.4936 6.4952C13.5748 6.77984 13.6323 7.0707 13.6656 7.3648C13.6712 7.4176 13.6792 7.4736 13.6832 7.5256C13.6992 7.6976 13.7096 7.8712 13.7096 8.0456C13.7086 8.38637 13.6773 8.72638 13.616 9.0616C13.6048 9.12 13.5952 9.1792 13.584 9.2352C13.552 9.3872 13.5152 9.536 13.472 9.6832C13.0648 9.4968 12.5864 9.2224 12.4616 8.9208C12.2344 8.3768 11.6296 8.1048 11.3832 7.404C10.9776 6.244 11.516 6.2744 11.5912 5.5544C11.6264 5.2168 11.3832 5.1464 11.0624 5.284C10.3136 5.5984 10.06 5.4776 9.9088 4.9136C9.7576 4.3512 9.9088 4.1944 9.9088 4.1944C9.3984 4.2504 9.3792 3.6288 9.644 3.472C9.828 3.3664 9.984 3.0424 10.1384 2.7904ZM7.9992 6.2376C8.4712 6.0216 8.9072 5.944 8.8496 5.5728C8.7936 5.2056 8.6608 4.932 7.9232 4.932C7.1856 4.932 7.5072 5.944 6.9024 5.34C6.2976 4.74 7.0344 4.8952 7.3368 4.7584C7.64 4.6208 7.9424 4.0568 7.4128 4.0168C6.884 3.9792 6.9968 4.2504 6.5808 4.0968C6.1648 3.94 5.976 4.64 5.7104 4.5424C5.536 4.4768 5.068 4.1168 4.7576 3.7624C4.12421 4.31331 3.62278 4.99956 3.2904 5.7704C3.3808 6.816 3.9336 7.3648 3.9336 7.3648C3.9336 7.3648 4.2176 8.0456 5.92 8.8824C5.92 8.8824 6.24 8.9016 5.8624 8.5136C5.4848 8.124 5.068 7.6376 5.5408 7.3856C6.0128 7.1304 6.1464 7.152 6.26 7.62C6.3728 8.0872 6.752 7.812 6.7888 7.3648C6.8272 6.9192 7.5264 6.4536 7.9992 6.2376ZM7.6392 8.5888C8.4536 8.5888 8.3776 8.8424 9.0208 9.4088C9.6632 9.972 9.3232 10.536 9.0008 10.9648C8.68 11.392 8.396 11.8768 8.2448 12.7552C8.0928 13.6304 7.696 13.0064 7.5648 12.7928C7.432 12.5776 7.224 12.384 7.2816 11.4888C7.3376 10.5944 6.732 11.1208 6.5248 9.9528C6.3168 8.7864 6.8272 8.5896 7.64 8.5896M11.6216 9.3608C11.8384 9.2224 12.3576 9.5832 12.2456 9.9632C12.1312 10.3432 11.7728 10.1288 11.5928 9.9632C11.4128 9.7984 11.4032 9.4968 11.6216 9.3608Z" fill="#FFFBFF"/>
</g>
<defs>
<clipPath id="clip0_0_1901">
<rect width="16" height="16" fill="white" transform="translate(0.5)"/>
</clipPath>
</defs>
</svg>
