<svg width="20" height="21" viewBox="0 0 20 21" fill="none" xmlns="http://www.w3.org/2000/svg">
<path d="M18.1711 9.32039H17.4998V9.28581H9.99984V12.6191H14.7094C14.0223 14.5596 12.1761 15.9525 9.99984 15.9525C7.23859 15.9525 4.99984 13.7137 4.99984 10.9525C4.99984 8.19122 7.23859 5.95247 9.99984 5.95247C11.2744 5.95247 12.434 6.43331 13.3169 7.21872L15.674 4.86164C14.1857 3.47456 12.1948 2.61914 9.99984 2.61914C5.39775 2.61914 1.6665 6.35039 1.6665 10.9525C1.6665 15.5546 5.39775 19.2858 9.99984 19.2858C14.6019 19.2858 18.3332 15.5546 18.3332 10.9525C18.3332 10.3937 18.2757 9.84831 18.1711 9.32039Z" fill="white"/>
<path d="M2.62744 7.07372L5.36536 9.08164C6.10619 7.24747 7.90036 5.95247 9.99994 5.95247C11.2745 5.95247 12.4341 6.43331 13.317 7.21872L15.6741 4.86164C14.1858 3.47456 12.1949 2.61914 9.99994 2.61914C6.79911 2.61914 4.02327 4.42622 2.62744 7.07372Z" fill="white"/>
<path d="M9.9998 19.2858C12.1523 19.2858 14.1081 18.462 15.5869 17.1224L13.0077 14.9399C12.1711 15.5737 11.1311 15.9524 9.9998 15.9524C7.8323 15.9524 5.99189 14.5704 5.29855 12.6416L2.58105 14.7354C3.96022 17.4341 6.76105 19.2858 9.9998 19.2858Z" fill="white"/>
<path d="M18.1712 9.32072L18.1646 9.28613H17.5H10V12.6195H14.7096C14.3796 13.5515 13.78 14.3553 13.0067 14.9407L13.0079 14.9399L15.5871 17.1224C15.4046 17.2882 18.3333 15.1195 18.3333 10.9528C18.3333 10.394 18.2758 9.84863 18.1712 9.32072Z" fill="white"/>
</svg>
