<svg width="38" height="23" viewBox="0 0 38 23" fill="none" xmlns="http://www.w3.org/2000/svg">
<path d="M23.8486 2.72461H14.0054V20.4155H23.8486V2.72461Z" fill="#FF5F00"/>
<path d="M14.6547 11.5702C14.6532 9.86644 15.0394 8.18461 15.784 6.65214C16.5286 5.11966 17.6122 3.77671 18.9526 2.72498C17.2929 1.4205 15.2997 0.60929 13.2008 0.384054C11.1019 0.158818 8.98194 0.528645 7.08327 1.45127C5.1846 2.3739 3.58381 3.8121 2.46386 5.60149C1.34392 7.39088 0.75 9.45928 0.75 11.5702C0.75 13.6812 1.34392 15.7496 2.46386 17.539C3.58381 19.3284 5.1846 20.7666 7.08327 21.6892C8.98194 22.6118 11.1019 22.9817 13.2008 22.7564C15.2997 22.5312 17.2929 21.72 18.9526 20.4155C17.6122 19.3638 16.5286 18.0208 15.784 16.4883C15.0394 14.9559 14.6532 13.274 14.6547 11.5702Z" fill="#EB001B"/>
<path d="M36.0816 18.5409V18.1788H36.2277V18.1051H35.856V18.1788H36.0021V18.5409H36.0816ZM36.8038 18.5409V18.1045H36.6899L36.5585 18.4047L36.4275 18.1045H36.3136V18.5409H36.394V18.2117L36.5167 18.4955H36.6004L36.7233 18.211V18.5409H36.8038Z" fill="#F79E1B"/>
<path d="M25.9052 0.319838C23.3829 0.315927 20.9331 1.16337 18.9524 2.72499C20.2917 3.77776 21.3744 5.12093 22.119 6.65317C22.8635 8.1854 23.2503 9.86671 23.2503 11.5703C23.2503 13.2738 22.8635 14.9551 22.119 16.4873C21.3744 18.0196 20.2917 19.3627 18.9524 20.4155C20.3624 21.5238 22.0169 22.279 23.778 22.6181C25.5391 22.9572 27.3558 22.8703 29.0765 22.3647C30.7972 21.8592 32.3721 20.9496 33.67 19.7118C34.9678 18.474 35.9509 16.9439 36.5373 15.249C37.1237 13.5541 37.2964 11.7436 37.041 9.96843C36.7856 8.19326 36.1096 6.50485 35.0692 5.044C34.0288 3.58315 32.6543 2.39218 31.0602 1.57041C29.4661 0.748632 27.6986 0.319857 25.9052 0.319838Z" fill="#F79E1B"/>
</svg>
