<svg width="60" height="60" viewBox="0 0 60 60" fill="none" xmlns="http://www.w3.org/2000/svg">
<rect x="0.5" y="0.5" width="59" height="59" rx="29.5" stroke="white" stroke-opacity="0.7"/>
<path fill-rule="evenodd" clip-rule="evenodd" d="M31.8692 22.2766C32.238 21.9078 32.836 21.9078 33.2049 22.2766L40.7604 29.8322C41.1292 30.201 41.1292 30.799 40.7604 31.1678L33.2049 38.7234C32.836 39.0922 32.238 39.0922 31.8692 38.7234C31.5004 38.3545 31.5004 37.7566 31.8692 37.3877L37.8125 31.4444H19.9444C19.4228 31.4444 19 31.0216 19 30.5C19 29.9784 19.4228 29.5556 19.9444 29.5556H37.8125L31.8692 23.6123C31.5004 23.2434 31.5004 22.6454 31.8692 22.2766Z" fill="white" fill-opacity="0.7"/>
</svg>
