<svg width="21" height="26" viewBox="0 0 21 26" fill="none" xmlns="http://www.w3.org/2000/svg">
<path fill-rule="evenodd" clip-rule="evenodd" d="M8.97497 6.22363H16.0035C19.7772 6.22363 21.1978 8.13407 20.9782 10.9408C20.6154 15.5744 17.8141 18.138 14.0985 18.138H12.2225C11.7127 18.138 11.3698 18.4754 11.2319 19.3898L10.4355 24.7057C10.3829 25.0504 10.2014 25.25 9.92929 25.2772H5.51334C5.09787 25.2772 4.95091 24.9597 5.05977 24.2721L7.75215 7.23056C7.85738 6.54839 8.23112 6.22363 8.97497 6.22363Z" fill="#009EE3"/>
<path fill-rule="evenodd" clip-rule="evenodd" d="M4.57893 0.358398H11.6147C13.5959 0.358398 15.9472 0.421898 17.5183 1.80982C18.5688 2.73691 19.1203 4.21192 18.9933 5.80123C18.5616 11.1733 15.3485 14.1832 11.0378 14.1832H7.56885C6.9774 14.1832 6.58733 14.5751 6.42042 15.6346L5.45159 21.8031C5.38809 22.2023 5.21574 22.4381 4.90731 22.4672H0.565749C0.0849661 22.4672 -0.0855775 22.1043 0.0396076 21.3024L3.16016 1.53042C3.28535 0.735766 3.72259 0.358398 4.57893 0.358398Z" fill="#113984"/>
<path fill-rule="evenodd" clip-rule="evenodd" d="M6.52197 15.0082L7.75024 7.23042C7.85728 6.54825 8.23102 6.22168 8.97487 6.22168H16.0034C17.1663 6.22168 18.1079 6.40311 18.8445 6.73875C18.1388 11.5212 15.0454 14.1773 10.996 14.1773H7.53253C7.06807 14.1791 6.72699 14.4113 6.52197 15.0082Z" fill="#172C70"/>
</svg>
