<svg width="20" height="20" viewBox="0 0 20 20" fill="none" xmlns="http://www.w3.org/2000/svg">
<g clip-path="url(#clip0_77_3971)">
<path fill-rule="evenodd" clip-rule="evenodd" d="M8.95846 2.08349C5.16152 2.08349 2.08349 5.16152 2.08349 8.95846C2.08349 12.7554 5.16152 15.8334 8.95846 15.8334C12.7554 15.8334 15.8334 12.7554 15.8334 8.95846C15.8334 5.16152 12.7554 2.08349 8.95846 2.08349ZM0.833496 8.95846C0.833496 4.47117 4.47116 0.833496 8.95846 0.833496C13.4457 0.833496 17.0834 4.47117 17.0834 8.95846C17.0834 13.4458 13.4457 17.0834 8.95846 17.0834C4.47116 17.0834 0.833496 13.4458 0.833496 8.95846ZM16.59 16.251C16.3971 16.2364 16.2364 16.3971 16.251 16.59C16.2513 16.5911 16.2545 16.6124 16.2706 16.6728C16.2896 16.7438 16.3177 16.838 16.3607 16.9815C16.4002 17.1132 16.4258 17.1985 16.4469 17.2618C16.4685 17.3267 16.4759 17.3391 16.4727 17.3331C16.5605 17.4971 16.7705 17.5501 16.9256 17.4473C16.9199 17.4511 16.9324 17.4437 16.9821 17.3969C17.0307 17.3511 17.0938 17.2881 17.191 17.191C17.2881 17.0938 17.3511 17.0307 17.3969 16.9821C17.4357 16.9409 17.4474 16.9253 17.4482 16.9244C17.5495 16.7698 17.497 16.5614 17.3344 16.4734C17.3334 16.473 17.3157 16.4648 17.2618 16.4469C17.1985 16.4258 17.1132 16.4002 16.9815 16.3607C16.838 16.3177 16.7438 16.2896 16.6728 16.2706C16.6124 16.2545 16.591 16.2513 16.59 16.251ZM15.0054 16.6945C14.9261 15.7307 15.7307 14.9261 16.6945 15.0054C16.8611 15.0191 17.0627 15.0798 17.2802 15.1453C17.3001 15.1513 17.3202 15.1573 17.3403 15.1633C17.3585 15.1688 17.3766 15.1742 17.3946 15.1796C17.5944 15.2392 17.7819 15.2951 17.9231 15.3707C18.7363 15.8062 18.9988 16.8467 18.4895 17.6158C18.401 17.7494 18.2626 17.8876 18.1149 18.0348C18.1016 18.0481 18.0883 18.0614 18.0748 18.0748C18.0614 18.0883 18.0481 18.1016 18.0348 18.115C17.8875 18.2626 17.7494 18.4011 17.6158 18.4895C16.8467 18.9988 15.8062 18.7363 15.3707 17.9231C15.2951 17.7819 15.2392 17.5944 15.1796 17.3946C15.1742 17.3766 15.1688 17.3585 15.1633 17.3403C15.1573 17.3202 15.1513 17.3002 15.1453 17.2803C15.0798 17.0627 15.0191 16.8611 15.0054 16.6945Z" fill="white"/>
</g>
<defs>
<clipPath id="clip0_77_3971">
<rect width="18.3333" height="18.3333" fill="white" transform="translate(0.833374 0.833496)"/>
</clipPath>
</defs>
</svg>
