<svg width="16" height="16" viewBox="0 0 16 16" fill="none" xmlns="http://www.w3.org/2000/svg">
<g clip-path="url(#clip0_0_6468)">
<path fill-rule="evenodd" clip-rule="evenodd" d="M7.53286 2.20539C7.27038 2.54815 6.97409 3.077 6.54373 3.84903L6.32527 4.24094C6.3121 4.26456 6.2991 4.28796 6.28622 4.31113C6.08573 4.67193 5.91651 4.97646 5.64384 5.18345C5.36824 5.39267 5.03226 5.46817 4.64178 5.55593C4.61669 5.56156 4.59137 5.56726 4.56582 5.57303L4.14159 5.66902C3.30471 5.85837 2.73539 5.98866 2.34543 6.14233C1.9649 6.2923 1.88457 6.41516 1.85395 6.51362C1.82164 6.61753 1.82068 6.77647 2.04818 7.13786C2.27907 7.50464 2.66861 7.96214 3.23829 8.62832L3.52751 8.96652C3.54431 8.98617 3.56097 9.0056 3.57746 9.02483C3.84613 9.33823 4.07016 9.59955 4.17292 9.93C4.27506 10.2585 4.2412 10.6036 4.20016 11.0221C4.19764 11.0477 4.19509 11.0737 4.19255 11.0999L4.14883 11.5512C4.06276 12.4393 4.00474 13.0508 4.02436 13.4913C4.04395 13.931 4.13681 14.0525 4.21065 14.1086C4.27632 14.1584 4.39771 14.2136 4.7932 14.1003C5.19511 13.9851 5.72928 13.7407 6.51289 13.3799L6.9101 13.1971C6.93457 13.1858 6.9588 13.1746 6.98282 13.1635C7.34601 12.9956 7.66111 12.8499 8.00489 12.8499C8.34868 12.8499 8.66377 12.9956 9.02697 13.1635C9.05099 13.1746 9.07522 13.1858 9.09968 13.1971L9.49689 13.3799C10.2805 13.7407 10.8147 13.9851 11.2166 14.1003C11.6121 14.2136 11.7335 14.1584 11.7991 14.1086C11.873 14.0525 11.9658 13.931 11.9854 13.4913C12.005 13.0508 11.947 12.4393 11.861 11.5512L11.8172 11.0999C11.8147 11.0737 11.8121 11.0478 11.8096 11.0221C11.7686 10.6036 11.7347 10.2585 11.8369 9.93C11.9396 9.59955 12.1637 9.33823 12.4323 9.02483C12.4488 9.00559 12.4655 8.98617 12.4823 8.96651L12.7715 8.62832C13.3412 7.96214 13.7307 7.50464 13.9616 7.13786C14.1891 6.77647 14.1881 6.61753 14.1558 6.51362C14.1252 6.41516 14.0449 6.2923 13.6644 6.14233C13.2744 5.98866 12.7051 5.85837 11.8682 5.66902L11.444 5.57303C11.4184 5.56725 11.3931 5.56156 11.368 5.55592C10.9775 5.46817 10.6415 5.39267 10.3659 5.18345C10.0933 4.97646 9.92406 4.67193 9.72357 4.31113C9.71069 4.28796 9.69769 4.26456 9.68452 4.24093L9.46606 3.84903C9.03569 3.077 8.73941 2.54815 8.47692 2.20539C8.21468 1.86295 8.08073 1.83333 8.00489 1.83333C7.92905 1.83333 7.7951 1.86295 7.53286 2.20539ZM6.73892 1.59739C7.05671 1.18242 7.44949 0.833328 8.00489 0.833328C8.56029 0.833328 8.95307 1.18242 9.27086 1.59739C9.58312 2.00515 9.91423 2.59917 10.3189 3.32517L10.558 3.75403C10.8197 4.22348 10.8866 4.32321 10.9706 4.38695C11.0514 4.44831 11.1557 4.48253 11.6646 4.59769L12.1313 4.70328C12.9151 4.88058 13.5608 5.02665 14.031 5.21197C14.5191 5.40434 14.9463 5.68786 15.1107 6.21668C15.2735 6.74004 15.0906 7.22155 14.8079 7.6706C14.5332 8.10691 14.0945 8.61989 13.5586 9.24652L13.2423 9.61644C12.8976 10.0195 12.8256 10.1181 12.7918 10.2269C12.7573 10.3379 12.7605 10.4661 12.8126 11.0035L12.8603 11.4956C12.9414 12.3329 13.0076 13.0157 12.9844 13.5358C12.9609 14.0651 12.8406 14.5734 12.4038 14.9051C11.9588 15.2429 11.441 15.2048 10.9411 15.0616C10.4565 14.9227 9.85225 14.6445 9.11856 14.3066L8.68146 14.1054C8.20323 13.8852 8.10085 13.8499 8.00489 13.8499C7.90894 13.8499 7.80656 13.8852 7.32833 14.1054L6.89123 14.3066C6.15754 14.6445 5.55332 14.9227 5.06865 15.0616C4.5688 15.2048 4.05102 15.2429 3.606 14.9051C3.16915 14.5734 3.04893 14.0651 3.02535 13.5358C3.00218 13.0157 3.06837 12.3329 3.14953 11.4955L3.19721 11.0035C3.24928 10.4661 3.25253 10.3379 3.21802 10.2269C3.18418 10.1181 3.11218 10.0195 2.76751 9.61644L2.45118 9.24654C1.91528 8.61991 1.47657 8.10692 1.2019 7.6706C0.919212 7.22155 0.736308 6.74004 0.89906 6.21668C1.06351 5.68786 1.49066 5.40434 1.97879 5.21197C2.44903 5.02666 3.09471 4.88058 3.87847 4.70328L3.92091 4.69367L4.34514 4.59769C4.8541 4.48253 4.95837 4.44831 5.0392 4.38695C5.12317 4.32321 5.19012 4.22348 5.45181 3.75403L5.69088 3.32516C6.09556 2.59917 6.42667 2.00515 6.73892 1.59739Z" fill="white"/>
</g>
<defs>
<clipPath id="clip0_0_6468">
<rect x="0.00488281" width="16" height="16" rx="5" fill="white"/>
</clipPath>
</defs>
</svg>
