<svg width="16" height="16" viewBox="0 0 16 16" fill="none" xmlns="http://www.w3.org/2000/svg">
<path d="M6.10691 3.60558C6.95134 2.09075 7.37356 1.33333 8.0048 1.33333C8.63604 1.33333 9.05826 2.09074 9.90269 3.60558L10.1212 3.99748C10.3611 4.42795 10.4811 4.64319 10.6682 4.7852C10.8552 4.92721 11.0882 4.97993 11.5542 5.08536L11.9784 5.18135C13.6182 5.55237 14.4381 5.73787 14.6332 6.36515C14.8283 6.99242 14.2693 7.64604 13.1514 8.95328L12.8622 9.29148C12.5445 9.66295 12.3857 9.84869 12.3142 10.0785C12.2428 10.3083 12.2668 10.5561 12.3148 11.0517L12.3585 11.5029C12.5275 13.2471 12.6121 14.1191 12.1014 14.5068C11.5907 14.8945 10.823 14.541 9.28769 13.8341L8.89048 13.6512C8.45418 13.4503 8.23604 13.3499 8.0048 13.3499C7.77357 13.3499 7.55542 13.4503 7.11913 13.6512L6.72192 13.8341C5.18658 14.541 4.41892 14.8945 3.90823 14.5068C3.39755 14.1191 3.48205 13.2471 3.65107 11.5029L3.69479 11.0517C3.74282 10.5561 3.76683 10.3083 3.69538 10.0785C3.62392 9.84869 3.46509 9.66295 3.14741 9.29148L2.8582 8.95328C1.7403 7.64604 1.18135 6.99242 1.37642 6.36515C1.57148 5.73787 2.39137 5.55237 4.03116 5.18135L4.45539 5.08536C4.92137 4.97993 5.15436 4.92721 5.34143 4.7852C5.5285 4.64319 5.64848 4.42795 5.88845 3.99748L6.10691 3.60558Z" fill="white"/>
</svg>
