<svg width="42" height="18" viewBox="0 0 42 18" fill="none" xmlns="http://www.w3.org/2000/svg">
<path fill-rule="evenodd" clip-rule="evenodd" d="M41.7735 9.4702C41.7735 6.5277 40.3485 4.2052 37.6235 4.2052C34.8885 4.2052 33.2325 6.52719 33.2325 9.4467C33.2325 12.9067 35.1865 14.6537 37.991 14.6537C39.359 14.6537 40.3935 14.3437 41.175 13.9067V11.6077C40.3935 11.9987 39.497 12.2397 38.359 12.2397C37.244 12.2397 36.2555 11.8487 36.129 10.4927H41.749C41.749 10.3427 41.772 9.7457 41.772 9.4697L41.7735 9.4702ZM36.1 8.3787C36.1 7.0797 36.893 6.5397 37.6175 6.5397C38.3185 6.5397 39.066 7.0797 39.066 8.3787H36.1ZM28.8015 4.2062C27.675 4.2062 26.9515 4.7347 26.5485 5.1027L26.3985 4.3902H23.865V17.7927L26.7385 17.1837L26.75 13.9307C27.164 14.2297 27.773 14.6547 28.785 14.6547C30.8425 14.6547 32.716 13.0047 32.716 9.3557C32.7045 6.0222 30.808 4.2057 28.796 4.2057L28.8015 4.2062ZM28.1115 12.1262C27.4335 12.1262 27.0315 11.8847 26.755 11.5862L26.7435 7.3212C27.0425 6.9877 27.456 6.7582 28.1115 6.7582C29.1575 6.7582 29.8815 7.9307 29.8815 9.4362C29.8815 10.9762 29.169 12.1262 28.1115 12.1262ZM19.9115 3.5282L22.7965 2.9082V0.575195L19.9115 1.1842V3.5282ZM19.9115 4.4017H22.7965V14.4592H19.9115V4.4017ZM16.819 5.2517L16.635 4.4017H14.152V14.4602H17.0255V7.6432C17.7035 6.75819 18.853 6.9192 19.2095 7.0457V4.4022C18.8415 4.2642 17.497 4.0112 16.8185 5.2522L16.819 5.2517ZM11.072 1.9017L8.26754 2.5002L8.25604 11.7072C8.25604 13.4082 9.53204 14.6612 11.233 14.6612C12.1755 14.6612 12.865 14.4887 13.2445 14.2812V11.9477C12.8765 12.0977 11.0605 12.6257 11.0605 10.9247V6.8502H13.2445V4.4017H11.0595L11.072 1.9017ZM3.30204 7.3157C3.30204 6.8672 3.67004 6.6957 4.27904 6.6957C5.27312 6.71687 6.24871 6.96847 7.12904 7.4307V4.7352C6.17504 4.3552 5.23254 4.2067 4.27904 4.2067C1.94554 4.2067 0.394043 5.4252 0.394043 7.4597C0.394043 10.6322 4.76204 10.1262 4.76204 11.4947C4.76204 12.0232 4.30204 12.1957 3.65854 12.1957C2.70454 12.1957 1.48604 11.8047 0.520543 11.2757V14.0107C1.58954 14.4707 2.67054 14.6607 3.65854 14.6607C6.04954 14.6607 7.69354 13.4767 7.69354 11.4192C7.68204 7.9942 3.30204 8.6032 3.30204 7.3157Z" fill="#6772E5"/>
</svg>
