<svg width="60" height="60" viewBox="0 0 60 60" fill="none" xmlns="http://www.w3.org/2000/svg">
<path fill-rule="evenodd" clip-rule="evenodd" d="M30 60C46.5685 60 60 46.5685 60 30C60 13.4315 46.5685 0 30 0C13.4315 0 0 13.4315 0 30C0 46.5685 13.4315 60 30 60ZM30 15.75C31.2426 15.75 32.25 16.7574 32.25 18V29.068L39.091 35.909C39.9697 36.7877 39.9697 38.2123 39.091 39.091C38.2123 39.9697 36.7877 39.9697 35.909 39.091L28.409 31.591C27.9871 31.169 27.75 30.5967 27.75 30V18C27.75 16.7574 28.7574 15.75 30 15.75Z" fill="#D758D2"/>
</svg>
