<svg width="22" height="22" viewBox="0 0 22 22" fill="none" xmlns="http://www.w3.org/2000/svg">
<path d="M15.0303 8.84771C15.3232 8.55482 15.3232 8.07995 15.0303 7.78705C14.7374 7.49416 14.2626 7.49416 13.9697 7.78705L9.5 12.2567L8.03033 10.7871C7.73744 10.4942 7.26256 10.4942 6.96967 10.7871C6.67678 11.0799 6.67678 11.5548 6.96967 11.8477L8.96967 13.8477C9.26256 14.1406 9.73744 14.1406 10.0303 13.8477L15.0303 8.84771Z" fill="white" fill-opacity="0.5"/>
<path fill-rule="evenodd" clip-rule="evenodd" d="M11 0.0673828C5.06294 0.0673828 0.25 4.88032 0.25 10.8174C0.25 16.7544 5.06294 21.5674 11 21.5674C16.9371 21.5674 21.75 16.7544 21.75 10.8174C21.75 4.88032 16.9371 0.0673828 11 0.0673828ZM1.75 10.8174C1.75 5.70875 5.89137 1.56738 11 1.56738C16.1086 1.56738 20.25 5.70875 20.25 10.8174C20.25 15.926 16.1086 20.0674 11 20.0674C5.89137 20.0674 1.75 15.926 1.75 10.8174Z" fill="white" fill-opacity="0.5"/>
</svg>
